<svg xmlns="http://www.w3.org/2000/svg" viewBox="0 0 512 512">
  <defs>
    <linearGradient id="bg" x1="0%" y1="0%" x2="100%" y2="100%">
      <stop offset="0%" style="stop-color:#1565C0"/>
      <stop offset="100%" style="stop-color:#0D47A1"/>
    </linearGradient>
  </defs>
  <rect width="512" height="512" rx="96" fill="url(#bg)"/>
  <!-- Tower body -->
  <rect x="196" y="140" width="120" height="280" rx="4" fill="#fff"/>
  <!-- Tower top/battlement -->
  <rect x="180" y="110" width="152" height="40" rx="4" fill="#fff"/>
  <rect x="188" y="88" width="24" height="30" rx="2" fill="#fff"/>
  <rect x="224" y="88" width="24" height="30" rx="2" fill="#fff"/>
  <rect x="260" y="88" width="24" height="30" rx="2" fill="#fff"/>
  <rect x="296" y="88" width="24" height="30" rx="2" fill="#fff"/>
  <!-- Tower windows -->
  <rect x="220" y="170" width="32" height="40" rx="16" fill="#1565C0"/>
  <rect x="260" y="170" width="32" height="40" rx="16" fill="#1565C0"/>
  <rect x="220" y="230" width="32" height="40" rx="16" fill="#1565C0"/>
  <rect x="260" y="230" width="32" height="40" rx="16" fill="#1565C0"/>
  <!-- Tower door -->
  <rect x="232" y="340" width="48" height="80" rx="24" fill="#1565C0"/>
  <!-- Base -->
  <rect x="160" y="410" width="192" height="20" rx="4" fill="#fff"/>
</svg>
